# xmcd CD database file
#
# Track frame offsets:
#	150
#	20292
#	36270
#	66425
#	88900
#	113960
#	137050
#	158950
#	179540
#	197465
#	223295
#	241392
#	258810
#	274732
#
# Disc length: 3940 seconds
#
# Revision: 0
# Processed by: cddbd v1.5.2PL0 Copyright (c) Steve Scherf et al.
# Submitted via: CDex 1.50
#
DISCID=d00f620e
DTITLE=Donato - Gelfand - Setting The Standard vol2
DYEAR=1900
DGENRE=Jazz
TTITLE0=Blusette
TTITLE1=On The Sunny Side Of The Street
TTITLE2=Stella By Starlight
TTITLE3=Autumn Leaves
TTITLE4=Round Midnight
TTITLE5=I've Got The World On A String
TTITLE6=The Way You Look Tonight
TTITLE7=Little Brise
TTITLE8=Blues For Five
TTITLE9=Nightingale Sang In Berkeley Square
TTITLE10=Scrapple From The Apple
TTITLE11=The Nearness Of You
TTITLE12=It's Only A Paper Moon
TTITLE13=Here's That Rainy Day
EXTD=
EXTT0=
EXTT1=
EXTT2=
EXTT3=
EXTT4=
EXTT5=
EXTT6=
EXTT7=
EXTT8=
EXTT9=
EXTT10=
EXTT11=
EXTT12=
EXTT13=
PLAYORDER=
